<svg version="1.1" id="Layer_1" xmlns="http://www.w3.org/2000/svg" xmlns:xlink="http://www.w3.org/1999/xlink" x="0px" y="0px"
	 width="1920px" height="300px" viewBox="0 0 1920 300" enable-background="new 0 0 1920 300" xml:space="preserve">
<rect fill="#FCB53B" width="299.978" height="59.993"/>
<rect y="119.987" fill="#F57F29" width="299.978" height="59.994"/>
<rect y="239.973" fill="#E32213" width="299.978" height="59.993"/>
<polygon points="1666.751,0.034 1666.751,59.932 1832.629,59.932 1666.865,240.039 1666.865,300 1919.999,300 1919.999,240.039 
	1751.793,240.039 1919.999,59.989 1919.999,0.034 "/>
<path d="M1481.89,60.05l47.385,119.869h-94.904L1481.89,60.05z M1435.918,0.034L1320.761,300h68.776l22.521-60.127l139.667,0.059
	L1574.242,300h68.408L1520.797,0.034H1435.918z"/>
<polygon points="935.824,0.034 847.759,216.007 763.959,0.034 689.548,0.034 815.535,300 880.767,300 1005.971,0.034 "/>
<polygon points="419.94,0.034 419.94,300 666.056,300 666.056,240.045 480.103,239.941 480.103,179.984 666.056,179.984 
	666.056,119.874 480.103,119.874 480.103,60.071 666.056,59.869 666.056,0.034 "/>
<g>
	<defs>
		<rect id="SVGID_1_" width="1920" height="300"/>
	</defs>
	<clipPath id="SVGID_2_">
		<use xlink:href="#SVGID_1_"  overflow="visible"/>
	</clipPath>
	<path clip-path="url(#SVGID_2_)" d="M1225.379,174.395c36.687-13.538,59.611-47.113,59.611-85.324
		c0-48.802-41.043-89.037-89.489-89.037h-46.165h-119.313V300h60.027V179.741h70.772l67.324,120.117h72.038L1225.379,174.395z
		 M1192.706,120.054h-102.739V61.037h102.739c16.298,0,29.509,13.212,29.509,29.509
		C1222.215,106.843,1209.004,120.054,1192.706,120.054"/>
</g>
</svg>
